<?xml version="1.0" encoding="iso-8859-1"?>
<!-- Generator: Adobe Illustrator 19.0.0, SVG Export Plug-In . SVG Version: 6.00 Build 0)  -->
<svg version="1.1" id="Capa_1" xmlns="http://www.w3.org/2000/svg" xmlns:xlink="http://www.w3.org/1999/xlink" x="0px" y="0px"
	 viewBox="0 0 512 512" style="enable-background:new 0 0 512 512;" xml:space="preserve">
<polygon style="fill:#898989;" points="235.984,479.983 326.597,479.983 315.817,405.578 235.984,385.562 "/>
<polygon style="fill:#CCCDD2;" points="196.183,405.578 185.403,479.983 256,479.983 256,385.562 "/>
<polygon style="fill:#007CD6;" points="512,17.017 256,17.017 235.984,338.187 512,318.171 "/>
<polygon style="fill:#51B1F5;" points="256,17.017 0,17.017 0,17.017 0,318.171 256,338.187 "/>
<path style="fill:#CCCDD2;" d="M298.341,128.969v48.633h30v-48.633c0-39.889-32.452-72.341-72.341-72.341L245.992,71.5L256,86.628
	C279.347,86.628,298.341,105.622,298.341,128.969z"/>
<path style="fill:#F5F5F6;" d="M256,56.628c-39.889,0-72.341,32.452-72.341,72.341v48.633h30v-48.633
	c0-23.347,18.994-42.341,42.341-42.341l0,0V56.628L256,56.628z"/>
<polygon style="fill:#CCCDD2;" points="256,405.578 315.817,405.578 512,405.578 512,318.171 256,318.171 235.984,361.875 "/>
<polygon style="fill:#F5F5F6;" points="256,318.171 0,318.171 0,405.578 196.183,405.578 256,405.578 "/>
<polygon style="fill:#898989;" points="278.271,346.875 256,346.875 245.992,361.875 256,376.875 278.271,376.875 "/>
<g>
	<rect x="233.73" y="346.87" style="fill:#CCCDD2;" width="22.272" height="30"/>
	<polygon style="fill:#CCCDD2;" points="382.12,464.983 256,464.983 235.984,479.983 256,494.983 382.12,494.983 	"/>
</g>
<rect x="129.88" y="464.98" style="fill:#F5F5F6;" width="126.12" height="30"/>
<polygon style="fill:#FFC813;" points="345.638,159.465 256,159.465 235.984,215.577 256,271.69 345.638,271.69 "/>
<rect x="166.36" y="159.47" style="fill:#FFDF78;" width="89.64" height="112.22"/>
<polygon style="fill:#FFAB00;" points="278.271,200.577 256,200.577 245.992,215.577 256,230.577 278.271,230.577 "/>
<rect x="233.73" y="200.58" style="fill:#FFC813;" width="22.272" height="30"/>
<g>
</g>
<g>
</g>
<g>
</g>
<g>
</g>
<g>
</g>
<g>
</g>
<g>
</g>
<g>
</g>
<g>
</g>
<g>
</g>
<g>
</g>
<g>
</g>
<g>
</g>
<g>
</g>
<g>
</g>
</svg>
